<svg id="Layer_2" data-name="Layer 2" xmlns="http://www.w3.org/2000/svg" viewBox="0 0 504.6 694.38">
    <defs>
        <style>
            .cls-1 {
            fill: #569241;
            }

            .cls-1, .cls-2, .cls-3, .cls-4, .cls-5, .cls-6 {
            stroke-width: 0px;
            }

            .cls-2 {
            fill: #86461e;
            }

            .cls-3 {
            fill: #e28748;
            }

            .cls-4 {
            fill: #74b143;
            }

            .cls-5 {
            fill: #97ca4a;
            }

            .cls-6 {
            fill: #b6652e;
            }
        </style>
    </defs>
    <g id="Layer_1-2" data-name="Layer 1">
        <g>
            <g>
                <path class="cls-6"
                      d="M318.24,666.64c-1.82-.67-3.49-1.79-5.28-2.56-5.33-2.28-10.16-5.36-14.92-8.65-7.55-5.21-14.38-11.67-19.61-19.23-7.7-11.13-8.85-24.19-9.08-37.33-.23-12.93-1.08-25.87-.84-38.79.48-25.04.96-36.14,1.43-79.8.09-.03.17-.28.24-.86,1.77-14.89-3.25-31.15,6.26-43.87,6.59-8.8,13.27-17.61,21.29-25.13,8.02-7.52,45.35-49.14,55.99-51.9-1.09.28-9.92-9.2-11.25-10.63-1.66-1.79-2.75-4.36-4.44-6.01-2.6-2.54-3.5-1.42-5.62,2-4.71,7.59-38.43,49.76-44.28,56.52-2.18,2.52-4.36,5.04-6.54,7.56-1.39,1.6-2.78,3.22-4.45,4.53-3.45,2.73-8.73,6.03-12.96,7.24-2.09.6-4.37.81-6.39.02-4.15-1.62-5.67-6.62-6.46-11-2.08-11.63-2.66-23.46-2.83-35.25-.08-5.33-.15-10.38.83-15.54.62-3.3,1.79-9.14-.77-11.96-1.85-2.03-5.06-1-7.58-.86-2.7.15-5.44.27-8.13.51-9.25.81-4.52,16.41-3.71,22,2.32,16.07,4.65,32.37,2.72,48.49-.46,3.88-2.07,8.63-5.96,9.02-2.06.21-3.99-.98-5.66-2.2-12.56-9.16-21.29-22.52-29.74-35.57-2.46-3.81-18.38-20.1-20.84-23.91-1.44-2.23-4.32-9.12-6.79-10.09-4.58-1.79-13.46,7.06-15.18,10.62-2.08,4.31,1.1,4.52,4.13,7.14,4.51,3.9,22,21.08,26.1,25.41,9.26,9.77,18.23,19.96,25.01,31.59,6.78,11.63,11.31,24.86,11.04,38.32l.24.2c-.43,37.31.7,49.88,3.36,70.54,3.35,25.98-1.78,49.74-3.39,75.54-.42,6.71-.72,13.63-3,20.02-2.6,7.27-7.33,11.08-13.02,15.85-4.13,3.47-8.58,6.57-13.27,9.25-3.09,1.76-6.31,3.36-9,5.7-1.6,1.4-3.01,3.12-3.9,5.04-.55,1.18.65,2.42,1.85,1.91,3.77-1.58,10.09-2.9,11.39-3.14,5.27-.99,10.56-.88,15.95-.98,2.1-.04,4.22-.07,6.27-.54,2.84-.65,5.42-2.09,7.95-3.52,1.97-1.11,3.94-2.22,5.9-3.32-.05.03-.39,8.73-.79,9.81-.99,2.7-2.41,4.82-3.12,7.71-1.32,5.36-2.2,11.13-1.28,16.62.23,1.39,2.12,1.69,2.7.41.78-1.71,1.81-3.3,3.06-4.7,4.51-5.04,11.49-7.31,16.07-12.28,1.26-1.37,2.32-2.93,3.61-4.27,2.37-2.46,6.46-4.96,9.56-6.39,4.33-1.99,8.83-.45,13.39-.44,4.46.01,8.92-.27,13.35-.84,2.56-.33,5.14-.76,7.72-.6,5.77.36,10.73,3.53,16.06,5.4,5.51,1.93,10.5.41,16.37.62.99.04,2-.07,2.93-.42,5.09-1.89-1.85-2.67-2.72-2.99Z"/>
                <path class="cls-2"
                      d="M353.45,358.46s-.08-.04-.13-.06c-.08-.04-.17-.09-.27-.16-.06-.04-.13-.08-.19-.13-.1-.07-.2-.15-.32-.23-.08-.06-.16-.12-.25-.2-.1-.08-.21-.18-.32-.27-.26-.22-.54-.47-.84-.74-.03-.03-.06-.05-.09-.08-.19-.18-.39-.36-.6-.56-.04-.03-.07-.07-.11-.1-.22-.21-.44-.42-.67-.64-6.98-2.48-14.25-4.14-21.66-5.19-1.3,1.74-2.8,3.72-4.44,5.87-.06.08-.12.15-.17.23-.38.5-.77,1.01-1.17,1.52-.04.06-.09.11-.13.17-2.14,2.78-4.48,5.78-6.89,8.86-.08.1-.15.19-.23.29-.44.56-.89,1.13-1.33,1.7-.06.08-.13.16-.19.24-.47.59-.93,1.18-1.4,1.78-.02.02-.03.04-.05.06-1.49,1.89-2.98,3.78-4.47,5.65-.03.04-.06.08-.09.12-.4.51-.8,1.01-1.2,1.51-.16.2-.32.4-.47.6-.37.46-.73.91-1.09,1.37-.17.22-.34.43-.52.65-.36.45-.72.9-1.08,1.35-.16.2-.32.4-.48.6-.36.44-.71.89-1.06,1.33-.13.16-.26.32-.39.49-.61.76-1.21,1.51-1.8,2.24-.24.3-.48.59-.71.88-.26.32-.51.63-.76.94-.23.29-.47.58-.69.86-.24.3-.47.58-.7.87-.25.3-.49.6-.72.89-.2.25-.4.5-.6.74-.27.33-.53.65-.79.97-.16.2-.32.4-.48.59-.4.5-.8.98-1.17,1.44-.06.07-.11.14-.17.21-.32.39-.62.76-.92,1.12-.12.15-.24.29-.36.44-.22.27-.44.53-.64.78-.12.14-.23.28-.34.42-.19.23-.37.44-.54.65-.11.13-.21.26-.31.38-.17.2-.32.39-.48.57-.08.09-.16.2-.24.28-.21.25-.41.48-.58.68-2.18,2.52-4.36,5.04-6.54,7.56-1.39,1.6-2.78,3.22-4.45,4.53-3.45,2.73-8.73,6.03-12.96,7.24-2.09.6-4.37.81-6.39.02-4.15-1.62-5.67-6.62-6.46-11-2.08-11.63-2.66-23.46-2.83-35.25-.08-5.33-.15-10.38.83-15.54.06-.31.12-.64.18-.99,0-.05.02-.1.03-.15.07-.37.14-.76.2-1.16,0-.02,0-.05.01-.07.13-.84.25-1.74.32-2.65.1-1.38.09-2.78-.17-4.05-.09-.42-.2-.82-.35-1.21-5.9-.48-11.88-1.21-17.85-1.83-6.92,1.79-4.08,13.71-2.88,19.98.03.18.07.35.1.51,0,.05.02.1.03.15.03.14.05.27.07.41.01.06.02.13.03.2.03.19.06.37.08.54,2.32,16.07,4.65,32.37,2.72,48.49-.46,3.88-2.07,8.63-5.96,9.02-2.06.21-3.99-.98-5.66-2.2-12.56-9.16-21.29-22.52-29.74-35.57-2.46-3.81-18.38-20.1-20.84-23.91-1.44-2.23-4.32-9.12-6.79-10.09-4.58-1.79-13.46,7.06-15.18,10.62-2.08,4.31,1.1,4.52,4.13,7.14,4.51,3.9,22,21.08,26.1,25.41.37.39.73.79,1.1,1.18,7.37.04,14.88,4.12,20.13,9.61,5.33,5.58,9.07,12.46,13.9,18.47,7.64,9.51,14.6,16.77,17.73,29.2,1.32,5.24,4.35,9.59,5.57,14.85,1.64,7.06,2.22,14.45,2.01,21.68-.12,3.94-.43,8.16,1.58,11.55-.82-1.38,2.67-11.19,2.95-13.32.59-4.55.55-9.03.56-13.6.02-9.19-.54-18.45-.31-27.69.06-2.47.16-4.98,1-7.3,2.44-6.77,7.89-5.66,10.46.42,1.46,3.45,1.18,7.35.87,11.08-.43,5.22-.85,10.44-1.28,15.65-.81,9.88-.67,20.44-3.46,29.91-2.92,9.92-1,22.7-.67,32.93.04,1.21.19,2.62,1.23,3.23,1.56.92,3.36-.84,4.11-2.48.88-1.91,1.65-11.46,4.11-10.95,1.11.23,1.54,1.61,1.47,2.74-.16,2.47.23,4.7.22,7.2-.02,9.54-.04,19.08-.06,28.62,0,2.52-.06,16.37-4.57,15.96-2.97-.27-1.36-6.93-1.43-8.73-.15-3.59-.53-7.17-1.15-10.71-.17-.96-.37-1.96-1.01-2.69-.64-.73-1.85-1.05-2.59-.42-1.16,1-.95,7.42-1.09,8.99-.28,3.22-.44,6.46-.48,9.69-.09,6.68.33,13.38,1.25,20,1.05,7.62,2.98,15.01,4.04,22.69.75,5.44,1.5,10.93,1.18,16.41-.61,10.42-5.26,20.56-12.76,27.82-4.77,4.62-10.58,8.06-15.29,12.74-5.8,5.76-9.69,13.36-11.15,21.39.02.16.03.33.06.49.23,1.39,2.12,1.69,2.7.41.78-1.71,1.81-3.3,3.06-4.7,4.51-5.04,11.49-7.31,16.07-12.28,1.26-1.37,2.32-2.93,3.61-4.27,2.37-2.46,6.46-4.96,9.56-6.39,4.33-1.99,8.83-.45,13.39-.44,4.46.01,8.92-.27,13.35-.84,2.56-.33,5.14-.76,7.72-.6,5.77.36,10.73,3.53,16.06,5.4,5.51,1.93,10.5.41,16.37.62.99.04,2-.07,2.93-.42.1-.04.19-.07.28-.11.67-.32,1.22-.73,1.55-1.29-1.33-1.11-2.95-1.01-4.55-1.6-1.82-.67-3.49-1.79-5.28-2.56-5.33-2.28-10.16-5.36-14.92-8.65-7.55-5.21-14.38-11.67-19.61-19.23-7.7-11.13-8.85-24.19-9.08-37.33-.23-12.93-1.08-25.87-.84-38.79.48-25.04.96-36.14,1.43-79.8.09-.03.17-.28.24-.86,1.77-14.89-3.25-31.15,6.26-43.87,6.59-8.8,13.27-17.61,21.29-25.13,8.02-7.52,45.35-49.14,55.99-51.9-.06.02-.16,0-.27-.05Z"/>
                <path class="cls-3"
                      d="M223.64,617.33c.94-7.31.3-14.72.12-22.09-.26-10,2.75-18.22,1.9-28.19-.95-11.11-.08-21.86.1-33.04.07-4.4.14-8.82-.5-13.17-.23-1.57-.55-3.13-.88-4.68-2.22-10.69-1.4-20.9-1.98-31.83-.51-9.59-1.73-19.39-6.11-27.95-1.33-2.6-2.94-5.05-4.56-7.49,1.53,5.73,2.35,11.63,2.24,17.57l.24.2c-.43,37.31.7,49.88,3.36,70.54,3.35,25.98-1.78,49.74-3.39,75.54-.42,6.71-.72,13.63-3,20.02-2.6,7.27-7.33,11.08-13.02,15.85-.14.12-.29.23-.44.35,12.91-6.35,24.03-17.01,25.92-31.64Z"/>
            </g>
            <g>
                <path class="cls-4"
                      d="M472.99,186.37c15.7-27.11-16.43-39.56-16.43-39.56,8.06-11.72,6.59-54.94-39.56-71.06-23.11-8.07-40.38-.07-51.87,9.93h0c-2.09-17.83-20.31-20.38-20.31-20.38-22.39-8.56-30.96,7.14-30.96,7.14,0,0,5.42-21.08-7.9-28.87-17.45-10.21-30.96,4.61-30.96,4.61,0,0-8.56-50.72-81.02-48.08-72.45,2.63-62.57,86.29-62.57,86.29,0,0-7.9-19.76-34.25-4.61-26.35,15.15-12.59,34.12-12.59,34.12-14.49-5.57-31.19-5.16-45.39,1.13C3.84,132.66-9.99,181.37,7.65,214.84c5.54,10.52,13.71,17.1,22.12,25.03-4.19-.94-9.71,5.66-11.84,8.74-2.76,3.99-3.85,8.94-3.74,13.74.21,9.27,5.06,19.55,14.06,23.19-27.96,24.27-18.8,74.77,16.2,87.1,17.25,6.07,35.47,2.34,51.89-4.94-.9,15.63,11.06,30.99,26.44,33.94,15.38,2.95,32.75-10.67,37.69-25.52,0,0,24.3,23.07,63.31,16.3,39.01-6.77,42.03-35.4,42.03-35.4,0,0,27.2,44.16,81.59,28.63,0,0,54.94-17.58,35.71-62.64,0,0,44.31,4.04,58.25-33.44,0,0,46.84,4.5,60.62-45.31,13.41-48.52-28.99-57.87-28.99-57.87Z"/>
                <path class="cls-1"
                      d="M445.49,271.31c-39.63,40.25-87.1,15.35-87.1,15.35-32.97,59.26-98.9,14.73-98.9,14.73-41.76,65.2-102.56,12.6-102.56,12.6-26.37,25.05-46.89-6.01-46.89-6.01-42.68,37.81-82.84,8.11-95.1-2.91-9.24,25.45,2.34,58,29.51,67.57,17.25,6.07,35.47,2.34,51.89-4.94-.9,15.63,11.06,30.99,26.44,33.94,15.38,2.95,32.75-10.67,37.69-25.52,0,0,24.3,23.07,63.31,16.3,39.01-6.77,42.03-35.4,42.03-35.4,0,0,27.2,44.16,81.59,28.63,0,0,54.94-17.58,35.71-62.64,0,0,15.29,1.39,30.73-5.06.1-.04.19-.08.29-.12.63-.26,1.25-.54,1.87-.84.12-.05.23-.11.35-.17.62-.3,1.25-.61,1.87-.93.1-.05.19-.1.29-.15,1.3-.69,2.6-1.45,3.87-2.27.09-.06.19-.12.28-.18.61-.4,1.2-.81,1.8-1.24.11-.08.22-.16.33-.24.59-.44,1.18-.89,1.76-1.36.09-.07.18-.15.27-.22,1.22-1,2.4-2.07,3.55-3.23.08-.08.17-.17.25-.25.54-.56,1.07-1.13,1.6-1.73.1-.11.2-.22.29-.34.52-.6,1.03-1.22,1.53-1.86.08-.1.15-.2.23-.3,1.04-1.36,2.02-2.8,2.95-4.34.07-.11.14-.22.2-.34.44-.74.86-1.5,1.27-2.29.08-.15.15-.3.23-.44.4-.79.79-1.6,1.17-2.44.06-.13.11-.26.17-.39.39-.89.76-1.79,1.11-2.73,0,0,34.06,3.27,52.63-26.65-25.94,16.28-48.5,8.41-48.5,8.41Z"/>
                <path class="cls-1"
                      d="M444.36,231.77c19.73.8,40.46-1.89,56.71-13.1.86-.59,1.71-1.22,2.52-1.89-2.75-12.72-10.72-20.39-17.84-24.84-4.26-1.85-8.51-3.71-12.77-5.56,0,0-22.84,27.84-71.74,9.71,0,0-14.83,17.76-38.46,6.13,0,0-12.28,19.14-36.91,8.15,0,0-13.64,15.05-30.12,3.4,2.73,6.63,8.04,12.06,14.85,14.29,6.81,2.23,14.58,1.33,20.7-2.39.93,3.55,5.22,4.88,8.86,5.32,5.35.66,10.85.68,16.04-.75,5.19-1.43,10.08-4.43,13.08-8.91,2.03,4.9,7.33,7.89,12.61,8.41,5.28.52,10.55-1.04,15.46-3.06,4.69-1.94,8.28-4.5,10.45-9.14,5.62,3.62,11.06,7.03,17.42,9.75,3.01,1.29,6.03,2.57,9.21,3.33,3.24.78,6.59,1.01,9.92,1.14Z"/>
                <path class="cls-1"
                      d="M146.67,249.74c-24.18,6.23-27.7-15.9-27.7-15.9-12.38.79-25.33-.83-35.89-7.35-10.55-6.53-18.17-18.7-16.78-31.03-13.58.8-27.47.12-40.29-4.45-9.86-3.51-19.05-9.55-25.46-17.73-1.71,14.29.47,28.99,7.09,41.55,5.42,10.28,13.33,16.8,21.54,24.49,13.94-.31,26.99-5.93,26.99-5.93,0,0,12.21,31.38,54.47,14.7,0,0,13.69,21.05,36.03,1.64Z"/>
                <path class="cls-5"
                      d="M460.28,129.14c-.65-17.73-11.1-42.15-43.28-53.39-23.11-8.07-40.38-.07-51.87,9.93-2.09-17.83-20.31-20.38-20.31-20.38-22.39-8.56-30.96,7.14-30.96,7.14,0,0,5.42-21.08-7.9-28.87-17.45-10.21-30.96,4.61-30.96,4.61,0,0-8.56-50.72-81.02-48.08-72.45,2.63-62.57,86.29-62.57,86.29,0,0-7.9-19.76-34.25-4.61-26.35,15.15-12.59,34.12-12.59,34.12-14.49-5.57-31.19-5.16-45.39,1.13-5.56,2.46-10.58,5.74-15.03,9.65.11,0,60.27-5.04,79.36,26.08-4.46-7.28-5.84-17.98-2.94-25.96,1.7-4.68,4.87-8.1,8.32-11.54,3.91-3.9,9.25-5.74,14.67-5.02,4.02.53,7.94,1.91,11.31,4.18,6.81,4.59,11.44,13.24,12.15,21.37,0,0-7.7-87.6,60.8-82.33,0,0,50.06-2.63,53.35,42.16,0,0,8.15-24.12,25.03-20.42,18.76,4.12,15.81,19.53,15.15,29.2,0,0,12.51-19.32,37.54-9.44,21.02,8.3,18.44,27.66,18.44,27.66,0,0,52.04-46.23,102.95,6.53Z"/>
            </g>
        </g>
    </g>
</svg>