<svg id="Layer_2" data-name="Layer 2" xmlns="http://www.w3.org/2000/svg" viewBox="0 0 238.65 482.69">
    <defs>
        <style>
            .cls-1 {
            fill: #645443;
            }

            .cls-1, .cls-2, .cls-3, .cls-4, .cls-5, .cls-6, .cls-7, .cls-8, .cls-9 {
            fill-rule: evenodd;
            stroke-width: 0px;
            }

            .cls-2 {
            fill: #827362;
            }

            .cls-3 {
            fill: #bad532;
            }

            .cls-4 {
            fill: #fef081;
            }

            .cls-5 {
            fill: #93ac3c;
            }

            .cls-6 {
            fill: #f15922;
            }

            .cls-7 {
            fill: #faa32f;
            }

            .cls-8 {
            fill: #ffcd05;
            }

            .cls-9 {
            fill: #4b3d2e;
            }
        </style>
    </defs>
    <g id="Layer_1-2" data-name="Layer 1">
        <g>
            <path class="cls-5"
                  d="M118.45,482.69c44.59,0,80.96-12.3,80.96-27.37s-36.37-27.37-80.96-27.37-80.96,12.3-80.96,27.37,36.37,27.37,80.96,27.37Z"/>
            <path class="cls-3"
                  d="M157.34,479.33c-11.54,2.14-24.8,3.36-38.89,3.36-43.18,0-78.45-11.43-80.83-25.82,2.23-14.5,33.68-26,72.16-26s72.29,12.38,72.29,27.65c0,8.3-9.57,15.75-24.72,20.82Z"/>
            <path class="cls-6" d="M117.67,79.42c.35-14.81,11.89-12.37,10.02-29.69-3.44,9.32-16.51,11.41-10.02,29.69Z"/>
            <path class="cls-6" d="M71.41,106.79c14.91-4.88,9-18.25,13.5-27.37-12.59,3.73-9,18.25-13.5,27.37Z"/>
            <path class="cls-6" d="M185.34,34.89c15.87-9.32,8.42-26.15,11.37-34.89-12.79,7.97-8.42,26.15-11.37,34.89Z"/>
            <path class="cls-6" d="M219.84,116.81c17.1-5.09,21.71-16.62,8.48-37.4,2.33,17.36-1.05,29.29-8.48,37.4Z"/>
            <path class="cls-6"
                  d="M181.22,320.45c29.4-6.27,44.66-23.81,34.66-61.47-3.83,26.82-15.17,47.49-34.66,61.47Z"/>
            <path class="cls-6"
                  d="M5.29,257.15c-12.47-35.47-1.61-58.41,18.89-73.25-19.53,30.21-8.75,36.69-18.89,73.25Z"/>
            <path class="cls-6" d="M108.81,131.66c1.07,19.31,13.13,21.75,35.28,8.67-15.72,4.38-28.81,3.91-35.28-8.67Z"/>
            <path class="cls-6"
                  d="M113.72,337.6c-53.78,0-97.38-42.88-97.38-95.77,2.58-29.77,12.53-48.79,24.17-75.5,3.32-7.62,8.59-17.04,12.38-24.78,3.9-7.98,10.16-21.17,16.46-27.09.45,3.91-4.77,17.99-5.8,23.51-.61,3.24-2.64,21.66,3.89,20.37,3.5-.69,9.09-12.66,11.49-16.15,10.08-14.67,20.79-22.94,29.69-40.2,2.57-4.98,4.79-10.23,7.21-15.31,3.96-8.17-2.79,19.12-3,19.74-4.62,13.46-16.97,33.09-3.38,45.52,8.03,7.34,18.38,2.48,26.87-1.34,14.83-6.66,27.08-16.49,31.06-32.89,3.43-17.72-.21-28.61.36-44.8.45-12.71,5.88-25.08,14.74-34.2,1.25,2.99-4.7,14.85-5.79,19.48-4.35,21.06,8.8,37.04,7.23,60.81-1.08,16.39-7.26,54.88,11.61,62.64,15.18,6.24,20.21-6.71,17.96-19.73-2.14-12.35-6.65-25.03-.27-37.02,1.65-3.09,4.57-6.03,2.93.2-5.04,19.13,7.49,32,10.49,51.05,1.67,10.6,1.02,19.98-3.21,29.9-7.82,17.11-8.37,19.01-11.21,37.87l-.37,2.52c-5.02,34.55-18.98,61.56-50.49,78.95-15.18,8.38-30.34,11.91-47.6,12.2Z"/>
            <path class="cls-7"
                  d="M30.21,244.38c.11-18.96,1.09-45.53,26.4-93.41-7.58,32.32,6.38,33.97,17.56,24.86,6.41-5.22,17.2-38.46,21.78-45.25-3.36,21.78-1.57,55.41,39.64,41.87,26.46-8.69,36.09-34.42,38.76-60.13,1.21-11.65,2.82,18.6,2.84,18.92,1.18,23.09-11.33,32.97-18.43,52.35-8.46,23.09,19.88,31.57,45.11,10.28,9.13-7.7,16.59-14.89,13.53-33.32,7.15,14.07,1.12,34.85-6.42,46.9-16.11,25.74-8.03,11.49-12.83,45.4-5.56,25.95-22.66,33.78-35.37,54.21-7.67,12.34-13.3,23.42-28.17,27.98-7.12,1.9-13.65-3.53-19.76-7.22-1.39-.84-2.72-1.62-4.13-2.41-6.51-3.46-11.67-1.91-18.47-.34-12.13,2.87-19.41,5.94-30.52-3.49-15.96-13.54-29.85-56.04-31.48-75.7l-.03-1.53Z"/>
            <path class="cls-7"
                  d="M102.85,322.79c-14.93.05-33.89-12.28-48.7-28.67-.07-.39-.13-.78-.2-1.17-3.01-17.67-5.46-18.66-12.11-33.56-10.88-27.7.08-29.81,4.13-54.93,2.21-13.68,2.36,1.75,1.65,6.78-1.09,7.67-5.83,24.13.66,29.48,6.15,5.07,13.67-1.84,16.26-7.89,7.43-19.58-9.33-27.05,12.28-53.86,6.12-7.59,8.28-10.27,10.7-20.11.14-.64,2.41-7.42,3.25-4.34,2.44,8.38,1.25,7.82-1.87,16.1-3.22,8.54-8.38,14.21-11.03,21-4.43,11.36,6.13,20.71,14.59,26.69,12.02,8.5,22.34,4.32,31.45-6.21,5.94-6.87,8.06-13.28,9.95-21.95,1.84-8.48,2.66,15.52,2.65,15.82-.2,12.85-1.98,17.41-6.05,29.13-3.83,11-5.13,19.55,6.56,25.52l.99.44c12.62,5.15,24.66-5.19,33.63-13.16,5.97-5.31,15.84-18.41,19.87-25.6,3.59-6.41,2.41,2.1.13,6.39-5.01,9.43-6.57,9.49-7.4,21.17-1.39,19.46-9.03,18.75-20.99,30.48-2.29,2.25-4.1,4.41-6.05,6.95-3.83,6.05-5.95,14.28-8.21,21.1-.08.23-.16.46-.25.69-1.82,1.11-3.62,2.17-5.38,3.18-12.67,7.3-11.62,10.42-40.49,10.52Z"/>
            <path class="cls-8"
                  d="M113.72,337.6c-17.31,0-33.56-4.45-47.65-12.24-6.3-9.59-14.86-21.37-16.75-32.6-2.97-17.67-6.68-16.55-12.88-31.63-11.32-27.52,5.47-31.54,9.52-56.67,2.21-13.68,2.36,1.75,1.65,6.78-1.09,7.67-5.83,24.13.66,29.48,6.15,5.07,13.67-1.84,16.26-7.89,7.43-19.58-9.33-27.05,12.28-53.86,7.64-9.49,7.27-9.23,10.83-20.69,3.53-11.39,3.56,2.2,3.81,5.31,1.08,13.6-2.12,16.14-6.12,28.46-3.71,11.44-3.08,18.98,5.66,25.22,15.53,11.08,22.24-2.67,27.89-19.73,2.49-7.53,8.04-15.09,15.63-19.46,5.01-2.88,16.69-4.84,23.64-10.95.23,12.82-23.15,13.68-23,36.85.1,15.34,9.13,10.75,4.11,25.49-11.23,33,10,38.11,32.56,18.04,7.69-6.84,9.39-17.68,15-25.5,6.54-9.11,16.4-14.82,19.74-22.71-1.4,14.95-13.52,27.19-15.21,50.75-1.39,19.46-16.16,18.56-28.13,30.28-2.29,2.25-4.1,4.41-6.05,6.95-3.83,6.05-5.95,14.28-8.21,21.1-3.65,10.5-9.49,20.36-17.41,27.57-5.74,1.01-11.65,1.53-17.83,1.63Z"/>
            <path class="cls-4"
                  d="M64.83,260.78c.08-7,2.53,1.45,3.59,4.04,6.82,16.6,15.82,25.46,24.56,3.36,10.22-25.85-10.31-42.2-10.63-48.17.36-2.75,6.55,6,7.37,6.8,7.58,7.46,11.44,7.88,15.28,19.4,5.81,17.81,9.3,25.1,29.9,24.16,10.11-.46,17.16-4.34,25.59-9.43,3.22-1.97,1.29.13.41,1.56-6.35,9.34-11.37,11.4-17.46,18.54-9.97,11.7-3.57,25.08-7.97,31.35-5.63,8.02-10.04,9.29-19.71,9.11-14.69-.26-27.03-8.9-36.62-19.43-11.1-12.19-13.88-25.21-14.3-41.27Z"/>
            <path class="cls-1"
                  d="M123.72,328.03c-5.51,27.83-11.87,96.02,23.1,107.23,7.31,2.34,18.42,3.7,21.62,11.6,2.03,5.02,2.23,4.23-4.14,5.38-7.68,1.39-22.89-.8-28.1,5.37-4.26,5.05-6.45,10.48-14.69,12.36-9.49,2.17-8.2-14.6-28.22-16.69-9.44-.98-19.3,2.72-28.01,5.94-24.64,9.5-9.88-15.54,3.37-23.23,17.26-10.02,18.08-11.75,19-33.09,1.08-18.23,7.36-48.51.65-64.99-16.96-32.46-57.69-53.34-49.77-97.8,1.28-7.17,3.72-14.65,5.48-21.82-.94,17.35-5.05,26.29,1.31,44.44,4.59,13.09,21.14,40.76,37.66,36.28l2.27-.77c12.01-8.55,10.35-22.31,4.87-34.44-6.41-12.25-16.28-19.45-20.63-28.37-8.66-17.73,5.95-49.74,14.75-65.21,12.67-22.28-1.07,13.08-2.58,17.37-6.63,18.84-12.6,45.9,11.08,55.64,20.12,8.28,31.6-19.86,35.09-34.72l.55-2.32c3.36-15.47,3.55-18.27,3.54.22,0,2.57-.02,5.14-.07,7.7-1.46,16.73-7.65,26.76-12.37,41.73-5.91,18.72,5.98,37.25,27.61,25.47,14.18-7.72,29.7-21.3,38.99-34.55,5.46-7.79-6.12,13.18-7.29,14.82-13.83,19.42-25.27,22.23-41.33,36.75-9.86,8.91-10.95,17.41-13.72,29.7Z"/>
            <path class="cls-9"
                  d="M123.72,328.03c-5.51,27.83-11.87,96.02,23.1,107.23,7.31,2.34,18.42,3.7,21.62,11.6,2.03,5.02,2.23,4.23-4.14,5.38-7.68,1.39-22.89-.8-28.1,5.37-4.26,5.05-6.45,10.48-14.69,12.36-7.03,1.61-8.14-7.19-16.4-12.7,11.8-.97,19.71-4.44,9.97-25.27-11.9-25.45-10.93-31.59-7.76-59.51,2.99-26.16,4.12-43.74,2.89-70.2-4.26-44.72-2.17-34.05,15.26-72.29,4.29-9.78,5.44-19.54,6.42-28.79,0,1.5,0,3.22,0,5.18,0,2.57-.02,5.14-.07,7.7-1.46,16.73-7.65,26.76-12.37,41.73-5.91,18.72,5.98,37.25,27.61,25.47,14.18-7.72,29.7-21.3,38.99-34.55,5.46-7.79-6.12,13.18-7.29,14.82-13.83,19.42-25.27,22.23-41.33,36.75-9.86,8.91-10.95,17.41-13.72,29.7Z"/>
            <path class="cls-6" d="M202.97,177.92c-16.57-10.39-21.97-24.52-7.46-45.3-3.65,17.24-1.33,32.4,7.46,45.3Z"/>
            <path class="cls-6" d="M229.71,201.02c11.62-11.99,13.22-24.8-3.04-39.07,6.53,13.55,7.7,26.59,3.04,39.07Z"/>
            <path class="cls-2"
                  d="M97.93,265.47c-2.44-5.72-4.37-8.41-8.41-13.08-4.26-4.92-2.59-5.49,1.53-1.43,6.12,6.02,9.94,13.58,12.75,21.62,5.99,20.29-4.03,26.45-2.31,39.23.67,5,1.53,8,1.48,13.27-.6,17.07.43,34.01-.04,50.98-.49,17.61-8.28,23.84-.95,43.98,1.27,3.49,9.32,22.08,8.08,24.59l-.43.53c-4.1,1.88-11.2-8.77-32.64,4.22-2.6,1.58-10.66,6.85-13.68,3.8-2.27-2.29,7.91-10.05,10.11-12.2,3.71-3.5,15.82-12.83,16.6-17.23.62-3.48-.56-11.71-.3-16.54.57-10.89,3.29-20.54,3.95-31.4.21-3.5.34-6.92.39-10.42,0-9.37,1.01-32.82-3.18-40.3-4.04-7.23-7.29-10.71-13.86-15.37-5.38-3.82-10.49-9.4.64-6.82,6.28,1.45,9.33,2.18,14.71-2.9,6.32-5.97,9.93-15.79,8.84-24.41-.62-3.56-1.9-6.78-3.27-10.1Z"/>
        </g>
    </g>
</svg>